<?xml version="1.0" encoding="utf-8"?>
<!-- Generated by Mocodo 4.0.13 -->
<svg width="548" height="238" viewBox="0 0 548 238" xmlns="http://www.w3.org/2000/svg">
<rect x="0" y="0" width="548" height="238" fill="#ffffbf" stroke="none" stroke-width="0"/>

<!-- Association APPARTIEN -->
<g>
	<line x1="319" y1="119" x2="203" y2="119" stroke="#66c2a5" stroke-width="2"/>
	<line x1="69" y1="119" x2="203" y2="119" stroke="#66c2a5" stroke-width="2"/>
	<g>
		<path d="M231 94 a14 14 90 0 1 14 14 V119 h-84 V108 a14 14 90 0 1 14 -14" fill="#abdda4" stroke="#abdda4" stroke-width="0"/>
		<path d="M245 119 v11 a14 14 90 0 1 -14 14 H175 a14 14 90 0 1 -14 -14 V119 H84" fill="#e6f598" stroke="#e6f598" stroke-width="0"/>
		<rect x="161" y="94" width="84" height="50" fill="none" rx="14" stroke="#66c2a5" stroke-width="2"/>
		<line x1="161" y1="119" x2="245" y2="119" stroke="#66c2a5" stroke-width="1"/>
		<text x="169" y="111.75" fill="#000000" font-family="Verdana" font-size="12">APPARTIEN</text>
	</g>
	<text x="251" y="136" fill="#d53e4f" font-family="Verdana" font-size="12">1,1</text>
	<text x="134" y="136" fill="#d53e4f" font-family="Verdana" font-size="12">1,N</text>
</g>

<!-- Association LIE -->
<g>
	<line x1="319" y1="119" x2="410" y2="119" stroke="#66c2a5" stroke-width="2"/>
	<line x1="499" y1="119" x2="410" y2="119" stroke="#66c2a5" stroke-width="2"/>
	<g>
		<path d="M413 94 a14 14 90 0 1 14 14 V119 h-34 V108 a14 14 90 0 1 14 -14" fill="#abdda4" stroke="#abdda4" stroke-width="0"/>
		<path d="M427 119 v11 a14 14 90 0 1 -14 14 H407 a14 14 90 0 1 -14 -14 V119 H34" fill="#e6f598" stroke="#e6f598" stroke-width="0"/>
		<rect x="393" y="94" width="34" height="50" fill="none" rx="14" stroke="#66c2a5" stroke-width="2"/>
		<line x1="393" y1="119" x2="427" y2="119" stroke="#66c2a5" stroke-width="1"/>
		<text x="400" y="111.75" fill="#000000" font-family="Verdana" font-size="12">LIE</text>
	</g>
	<text x="366" y="136" fill="#d53e4f" font-family="Verdana" font-size="12">1,1</text>
	<text x="432" y="136" fill="#d53e4f" font-family="Verdana" font-size="12">1,N</text>
</g>

<!-- Entity BALL_TRAPS -->
<g>
	<g>
		<rect x="9" y="9" width="120" height="25" fill="#fdae61" stroke="none" stroke-width="0" opacity="1"/>
		<rect x="9" y="34" width="120" height="195" fill="#fee08b" stroke="none" stroke-width="0" opacity="1"/>
		<rect x="9" y="9" width="120" height="220" fill="none" stroke="#f46d43" stroke-width="2" opacity="1"/>
		<line x1="9" y1="34" x2="129" y2="34" stroke="#f46d43" stroke-width="1"/>
	</g>
	<text x="30" y="26.75" fill="#000000" font-family="Verdana" font-size="12">BALL_TRAPS</text>
	<text x="14" y="51.8" fill="#000000" font-family="Verdana" font-size="12">id</text>
	<line x1="14" y1="54" x2="26" y2="54" stroke="#000000" stroke-width="1"/>
	<text x="14" y="68.8" fill="#000000" font-family="Verdana" font-size="12">ville</text>
	<text x="14" y="85.8" fill="#000000" font-family="Verdana" font-size="12">organisation</text>
	<text x="14" y="102.8" fill="#000000" font-family="Verdana" font-size="12">affiche</text>
	<text x="14" y="119.8" fill="#000000" font-family="Verdana" font-size="12">adresse_ball_trap</text>
	<text x="14" y="136.8" fill="#000000" font-family="Verdana" font-size="12">contenu_principal</text>
	<text x="14" y="153.8" fill="#000000" font-family="Verdana" font-size="12">organisateur_id</text>
	<text x="14" y="170.8" fill="#000000" font-family="Verdana" font-size="12">restauration</text>
	<text x="14" y="187.8" fill="#000000" font-family="Verdana" font-size="12">status</text>
	<text x="14" y="204.8" fill="#000000" font-family="Verdana" font-size="12">created_at</text>
	<text x="14" y="221.8" fill="#000000" font-family="Verdana" font-size="12">updated_at</text>
</g>

<!-- Entity DATES -->
<g>
	<g>
		<rect x="277" y="34" width="84" height="25" fill="#fdae61" stroke="none" stroke-width="0" opacity="1"/>
		<rect x="277" y="59" width="84" height="145" fill="#fee08b" stroke="none" stroke-width="0" opacity="1"/>
		<rect x="277" y="34" width="84" height="170" fill="none" stroke="#f46d43" stroke-width="2" opacity="1"/>
		<line x1="277" y1="59" x2="361" y2="59" stroke="#f46d43" stroke-width="1"/>
	</g>
	<text x="298" y="51.75" fill="#000000" font-family="Verdana" font-size="12">DATES</text>
	<text x="282" y="76.8" fill="#000000" font-family="Verdana" font-size="12">id</text>
	<line x1="282" y1="79" x2="294" y2="79" stroke="#000000" stroke-width="1"/>
	<text x="282" y="93.8" fill="#000000" font-family="Verdana" font-size="12">date</text>
	<text x="282" y="110.8" fill="#000000" font-family="Verdana" font-size="12">horaire</text>
	<text x="282" y="127.8" fill="#000000" font-family="Verdana" font-size="12">ball_trap_id</text>
	<text x="282" y="144.8" fill="#000000" font-family="Verdana" font-size="12">user_id</text>
	<text x="282" y="161.8" fill="#000000" font-family="Verdana" font-size="12">status</text>
	<text x="282" y="178.8" fill="#000000" font-family="Verdana" font-size="12">created_at</text>
	<text x="282" y="195.8" fill="#000000" font-family="Verdana" font-size="12">updated_at</text>
</g>

<!-- Entity USERS -->
<g>
	<g>
		<rect x="459" y="26" width="80" height="25" fill="#fdae61" stroke="none" stroke-width="0" opacity="1"/>
		<rect x="459" y="51" width="80" height="161" fill="#fee08b" stroke="none" stroke-width="0" opacity="1"/>
		<rect x="459" y="26" width="80" height="186" fill="none" stroke="#f46d43" stroke-width="2" opacity="1"/>
		<line x1="459" y1="51" x2="539" y2="51" stroke="#f46d43" stroke-width="1"/>
	</g>
	<text x="478" y="43.75" fill="#000000" font-family="Verdana" font-size="12">USERS</text>
	<text x="464" y="68.8" fill="#000000" font-family="Verdana" font-size="12">id</text>
	<line x1="464" y1="71" x2="476" y2="71" stroke="#000000" stroke-width="1"/>
	<text x="464" y="85.8" fill="#000000" font-family="Verdana" font-size="12">email</text>
	<text x="464" y="102.8" fill="#000000" font-family="Verdana" font-size="12">password</text>
	<text x="464" y="119.8" fill="#000000" font-family="Verdana" font-size="12">firstname</text>
	<text x="464" y="136.8" fill="#000000" font-family="Verdana" font-size="12">lastname</text>
	<text x="464" y="153.8" fill="#000000" font-family="Verdana" font-size="12">role</text>
	<text x="464" y="170.8" fill="#000000" font-family="Verdana" font-size="12">status</text>
	<text x="464" y="187.8" fill="#000000" font-family="Verdana" font-size="12">created_at</text>
	<text x="464" y="204.8" fill="#000000" font-family="Verdana" font-size="12">updated_at</text>
</g>
</svg>